<?xml version="1.0" standalone="no"?>
<!DOCTYPE svg PUBLIC "-//W3C//DTD SVG 20010904//EN"
 "http://www.w3.org/TR/2001/REC-SVG-20010904/DTD/svg10.dtd">
<svg version="1.0" xmlns="http://www.w3.org/2000/svg"
 width="200.000000pt" height="200.000000pt" viewBox="0 0 200.000000 200.000000"
 preserveAspectRatio="xMidYMid meet">
<metadata>
Created by potrace 1.11, written by Peter Selinger 2001-2013
</metadata>
<g transform="translate(0.000000,200.000000) scale(0.100000,-0.100000)"
fill="#000000" stroke="none">
<path d="M875 1921 c-38 -11 -73 -17 -77 -15 -3 2 -19 -1 -35 -8 -15 -6 -33
-12 -38 -13 -6 0 -24 -10 -39 -23 -16 -12 -32 -22 -36 -22 -12 0 -81 -99 -101
-145 -27 -61 -28 -103 -7 -247 18 -125 18 -134 2 -163 -15 -28 -15 -38 -5 -83
7 -28 31 -86 53 -129 37 -70 41 -86 42 -155 1 -74 0 -77 -24 -83 -48 -13 -103
-75 -210 -241 -12 -18 -51 -54 -88 -82 -37 -28 -98 -76 -137 -106 -38 -30 -94
-72 -122 -92 l-53 -37 0 -138 0 -139 895 0 c492 0 895 1 895 3 0 18 -36 119
-51 143 -22 36 -143 121 -294 208 -55 32 -108 65 -118 75 -17 16 -17 19 -2 24
10 5 15 2 13 -8 -2 -7 1 -15 6 -17 5 -2 10 5 12 15 1 9 -2 17 -7 17 -6 0 -7 4
-4 10 4 6 -1 7 -11 3 -14 -5 -14 -3 3 14 16 16 25 52 42 164 12 79 26 163 30
187 6 27 5 42 -1 42 -6 0 -5 6 2 15 7 9 10 40 8 85 -1 38 -1 70 2 70 4 0 5 17
3 38 -2 32 -1 33 6 12 8 -23 9 -24 10 -3 1 12 -3 25 -9 28 -5 3 -10 14 -10 23
0 15 2 15 10 2 11 -17 13 -1 4 25 -4 10 -9 12 -13 7 -3 -6 -11 0 -17 13 -7 15
-8 28 -2 37 8 10 9 9 4 -4 -3 -10 -1 -20 4 -23 6 -4 10 2 10 12 0 11 6 25 13
32 10 11 9 12 -2 6 -11 -6 -13 -4 -8 8 4 10 2 14 -7 11 -19 -7 -20 75 0 148
17 66 20 196 5 260 -14 59 -88 146 -148 174 -29 14 -53 28 -53 33 0 5 -12 11
-27 14 -16 3 -46 11 -68 18 -66 20 -173 20 -250 0z"/>
</g>
</svg>
