<?xml version="1.0" standalone="no"?>
<!DOCTYPE svg PUBLIC "-//W3C//DTD SVG 20010904//EN"
 "http://www.w3.org/TR/2001/REC-SVG-20010904/DTD/svg10.dtd">
<svg version="1.0" xmlns="http://www.w3.org/2000/svg"
 width="200.000000pt" height="200.000000pt" viewBox="0 0 200.000000 200.000000"
 preserveAspectRatio="xMidYMid meet">
<metadata>
Created by potrace 1.11, written by Peter Selinger 2001-2013
</metadata>
<g transform="translate(0.000000,200.000000) scale(0.100000,-0.100000)"
fill="#000000" stroke="none">
<path d="M860 1831 c-69 -19 -125 -44 -135 -62 -4 -5 -18 -14 -31 -19 -13 -5
-24 -17 -24 -25 0 -9 -5 -13 -10 -10 -6 3 -13 -2 -17 -12 -4 -10 -16 -25 -27
-34 -31 -26 -18 -130 17 -129 14 1 67 45 67 57 1 16 37 51 69 68 28 14 38 15
63 4 16 -6 39 -13 51 -15 12 -2 39 -6 61 -10 26 -5 40 -3 46 6 6 10 17 8 52
-9 24 -11 53 -21 65 -21 28 0 75 -25 107 -56 14 -15 26 -23 26 -18 1 5 7 -2
15 -16 9 -17 10 -29 3 -37 -6 -7 -8 -33 -4 -60 3 -27 8 -81 12 -121 5 -51 10
-70 16 -60 7 9 8 5 4 -12 -5 -24 -4 -24 10 -6 8 11 12 28 9 37 -5 15 -6 89 -2
177 1 17 6 32 11 32 4 0 5 7 2 16 -7 18 14 74 26 74 30 0 -19 136 -54 150 -13
5 -19 9 -14 9 16 1 -48 52 -89 71 -87 39 -96 42 -185 46 -51 2 -96 -2 -140
-15z"/>
<path d="M657 1542 c-19 -20 -23 -37 -7 -27 10 6 33 45 27 45 -2 0 -11 -8 -20
-18z"/>
<path d="M653 1393 c4 -6 -2 -18 -12 -27 -22 -20 -26 -80 -6 -96 10 -8 17 -6
29 11 14 21 15 20 11 -22 -3 -30 -1 -39 5 -29 5 8 10 37 10 64 0 39 -3 47 -15
42 -20 -7 -19 3 3 28 16 20 16 20 -2 6 -18 -14 -19 -13 -13 2 3 10 1 20 -5 24
-6 4 -8 3 -5 -3z"/>
<path d="M882 1383 c-10 -4 -9 -10 5 -26 10 -11 12 -17 6 -13 -9 5 -13 1 -14
-11 0 -10 -3 -13 -6 -5 -7 18 -48 15 -66 -6 -24 -26 -21 -35 6 -21 12 7 34 12
50 11 15 -1 27 2 27 8 0 5 7 10 15 10 19 0 19 -14 -1 -34 -14 -15 -14 -16 4
-16 32 0 67 34 57 56 -4 10 -7 24 -6 30 2 18 -48 29 -77 17z m68 -53 c0 -5 -5
-10 -11 -10 -5 0 -7 5 -4 10 3 6 8 10 11 10 2 0 4 -4 4 -10z"/>
<path d="M1066 1375 c-21 -16 -38 -114 -18 -101 7 4 20 2 31 -3 12 -7 29 -8
42 -3 23 9 23 9 -4 16 -16 3 -25 11 -22 15 3 5 0 11 -7 13 -8 3 -8 7 -2 11 6
3 20 -3 32 -13 22 -21 37 -27 27 -11 -3 5 0 13 6 17 6 3 14 2 18 -4 11 -18 33
-18 36 0 2 9 -12 30 -31 47 -37 34 -77 40 -108 16z m87 -32 c-7 -2 -19 -2 -25
0 -7 3 -2 5 12 5 14 0 19 -2 13 -5z"/>
<path d="M1227 1364 c-8 -8 3 -34 14 -34 11 0 12 27 0 34 -4 3 -11 3 -14 0z"/>
<path d="M600 1250 c0 -5 5 -10 11 -10 5 0 7 5 4 10 -3 6 -8 10 -11 10 -2 0
-4 -4 -4 -10z"/>
<path d="M1030 1257 c0 -3 5 -17 11 -31 16 -35 -4 -82 -38 -91 -38 -9 -20 -18
21 -11 20 4 35 12 33 18 -1 6 4 13 12 16 9 3 11 0 6 -8 -6 -9 -4 -11 4 -6 9 6
9 12 -3 25 -9 10 -16 26 -16 37 0 10 -7 28 -15 38 -8 11 -15 17 -15 13z"/>
<path d="M946 1155 c25 -19 35 -19 28 0 -4 8 -16 15 -27 15 -20 0 -20 0 -1
-15z"/>
<path d="M852 1058 c2 -6 15 -18 29 -27 13 -8 21 -11 17 -7 -4 5 2 17 14 27
21 19 21 19 -21 19 -28 0 -41 -4 -39 -12z"/>
<path d="M1050 1060 c-12 -8 -10 -10 9 -10 19 0 23 -4 19 -25 -3 -14 -2 -25 2
-25 8 0 60 54 60 63 0 11 -73 8 -90 -3z"/>
<path d="M1216 963 c-16 -29 -35 -54 -42 -57 -17 -6 -18 8 -3 36 8 15 8 19 -1
13 -17 -10 -29 -48 -19 -60 4 -6 -8 -29 -32 -54 -21 -25 -39 -40 -39 -35 0 5
-4 4 -8 -3 -4 -6 -31 -16 -60 -21 -42 -7 -60 -6 -87 6 -19 9 -35 20 -35 24 0
4 -7 8 -15 8 -8 0 -14 3 -12 8 1 4 -1 7 -5 7 -4 0 -22 14 -40 31 -18 17 -46
38 -62 48 l-28 18 18 -31 c10 -16 41 -54 68 -84 43 -46 59 -56 104 -66 29 -6
68 -11 86 -11 18 0 41 -6 52 -14 18 -14 18 -16 2 -43 -10 -18 -13 -34 -8 -43
6 -10 13 -5 29 21 27 45 28 14 1 -46 -11 -24 -25 -68 -31 -97 -6 -29 -18 -59
-27 -65 -9 -7 -43 -13 -77 -13 -47 0 -74 6 -115 28 -53 27 -55 29 -99 132 -40
93 -45 114 -45 182 -1 43 -4 78 -9 78 -8 0 -10 -2 -94 -108 -41 -54 -73 -82
-113 -103 -30 -17 -81 -45 -112 -64 -32 -18 -68 -37 -80 -40 -13 -4 -80 -34
-151 -68 l-127 -60 0 -209 0 -208 524 0 523 0 14 47 c7 26 14 42 16 36 3 -7 0
-28 -6 -47 -5 -20 -6 -36 -2 -36 5 0 13 19 19 43 l11 42 -5 -43 c-3 -28 -1
-41 6 -37 5 3 10 17 10 31 0 14 4 23 9 20 4 -3 6 -18 4 -33 -4 -26 -2 -25 17
9 22 41 35 50 25 18 -4 -11 -2 -20 4 -20 6 0 11 7 11 15 0 8 5 15 10 15 12 0
12 -2 0 -34 -13 -35 3 -33 18 2 l12 27 -4 -28 c-2 -15 1 -27 5 -27 5 0 9 7 9
15 0 8 5 15 11 15 6 0 9 -7 5 -15 -3 -8 -1 -15 4 -15 6 0 10 5 10 10 0 6 5 10
11 10 5 0 7 -4 4 -10 -3 -5 -2 -10 4 -10 5 0 12 6 14 13 4 9 6 9 6 0 1 -10 49
-13 207 -13 l206 0 -4 27 c-55 314 -77 377 -145 411 -21 11 -114 59 -208 107
-164 85 -171 90 -199 139 -16 28 -33 54 -38 57 -12 8 36 118 69 159 45 53 65
88 61 102 -3 7 -17 -11 -32 -39z m-120 -458 c-23 -36 -39 -32 -31 8 4 17 12
38 18 46 9 11 13 9 20 -8 7 -14 5 -27 -7 -46z m-76 -372 c0 -12 -20 -39 -20
-29 0 6 -7 1 -15 -10 -10 -13 -14 -15 -15 -5 0 8 7 23 17 33 17 18 33 24 33
11z m14 -40 c-4 -12 -18 -30 -33 -39 l-26 -17 21 24 c12 13 24 33 28 43 9 25
17 16 10 -11z m20 -20 c-8 -32 -22 -53 -37 -53 -5 0 -3 8 5 18 9 9 19 27 22
40 10 31 18 27 10 -5z"/>
<path d="M1150 10 c0 -5 5 -10 10 -10 6 0 10 5 10 10 0 6 -4 10 -10 10 -5 0
-10 -4 -10 -10z"/>
</g>
</svg>
